# Blender 3.3.1
# www.blender.org
mtllib untitled.mtl
o Cube
v 10.000000 0.500000 -10.000000
v 10.000000 -0.500000 -10.000000
v 10.000000 0.500000 10.000000
v 10.000000 -0.500000 10.000000
v -10.000000 0.500000 -10.000000
v -10.000000 -0.500000 -10.000000
v -10.000000 0.500000 10.000000
v -10.000000 -0.500000 10.000000
v 10.000000 0.516844 -10.000000
v 10.000000 0.516844 10.000000
v -10.000000 0.516844 -10.000000
v -10.000000 0.516844 10.000000
vn -0.0000 -0.0000 1.0000
vn -1.0000 -0.0000 -0.0000
vn -0.0000 -1.0000 -0.0000
vn 1.0000 -0.0000 -0.0000
vn -0.0000 -0.0000 -1.0000
vn -0.0000 1.0000 -0.0000
vt 0.625000 0.500000
vt 0.375000 0.500000
vt 0.625000 0.750000
vt 0.375000 0.750000
vt 0.625000 0.250000
vt 0.125000 0.500000
vt 0.375000 0.250000
vt 0.625000 1.000000
vt 0.625000 0.000000
vt 0.375000 1.000000
vt 0.375000 0.000000
vt 0.125000 0.750000
vt 0.016680 0.037399
vt 0.016680 0.995574
vt 0.974855 0.037399
vt 0.974855 0.995574
s 0
usemtl Material
f 4/4/1 3/3/1 7/8/1 8/10/1
f 8/11/2 7/9/2 5/5/2 6/7/2
f 6/6/3 2/2/3 4/4/3 8/12/3
f 2/2/4 1/1/4 3/3/4 4/4/4
f 6/7/5 5/5/5 1/1/5 2/2/5
usemtl grass
f 9/13/6 11/15/6 12/16/6 10/14/6
