# Blender 3.3.1
# www.blender.org
mtllib sand3.mtl
o Cylinder.001
v 0.000000 -1.000000 50.000000
v 0.000000 1.000000 50.000000
v -9.754517 -1.000000 49.039261
v -9.754517 1.000000 49.039261
v -19.134172 -1.000000 46.193974
v -19.134172 1.000000 46.193974
v -27.778513 -1.000000 41.573479
v -27.778513 1.000000 41.573479
v -35.355339 -1.000000 35.355339
v -35.355339 1.000000 35.355339
v -41.573479 -1.000000 27.778513
v -41.573479 1.000000 27.778513
v -46.193974 -1.000000 19.134172
v -46.193974 1.000000 19.134172
v -49.039261 -1.000000 9.754517
v -49.039261 1.000000 9.754517
v -50.000000 -1.000000 0.000000
v -50.000000 1.000000 0.000000
v -30.000002 1.000000 0.000000
v -27.716385 1.000000 11.480504
v -29.423557 1.000000 5.852710
v -24.944088 1.000000 16.667109
v -16.667109 1.000000 24.944088
v -11.480504 1.000000 27.716385
v -21.213203 1.000000 21.213203
v -5.852710 1.000000 29.423557
v 0.000000 1.000000 30.000002
v -30.000002 -1.000000 0.000000
v -27.716385 -1.000000 11.480504
v -29.423557 -1.000000 5.852710
v -24.944088 -1.000000 16.667109
v -21.213203 -1.000000 21.213203
v -16.667109 -1.000000 24.944088
v 0.000000 -1.000000 30.000002
v -5.852710 -1.000000 29.423557
v -11.480504 -1.000000 27.716385
v 0.000000 0.993020 50.000000
v -9.754517 0.993020 49.039261
v -19.134172 0.993020 46.193974
v -27.778513 0.993020 41.573479
v -35.355339 0.993020 35.355339
v -41.573479 0.993020 27.778513
v -46.193974 0.993020 19.134172
v -49.039261 0.993020 9.754517
v -50.000000 0.993020 0.000000
v -30.000002 0.993020 0.000000
v -27.716385 0.993020 11.480504
v -29.423557 0.993020 5.852710
v -24.944088 0.993020 16.667109
v -16.667109 0.993020 24.944088
v -11.480504 0.993020 27.716385
v -21.213203 0.993020 21.213203
v -5.852710 0.993020 29.423557
v 0.000000 0.993020 30.000002
vn -0.0980 -0.0000 0.9952
vn -0.2903 -0.0000 0.9569
vn -0.4714 -0.0000 0.8819
vn -0.6344 -0.0000 0.7730
vn -0.7730 -0.0000 0.6344
vn -0.8819 -0.0000 0.4714
vn -0.9569 -0.0000 0.2903
vn -0.9952 -0.0000 0.0980
vn -0.0000 -1.0000 -0.0000
vn 0.0980 -0.0000 -0.9952
vn 0.2903 -0.0000 -0.9569
vn 0.4714 -0.0000 -0.8819
vn 0.6344 -0.0000 -0.7730
vn 0.7730 -0.0000 -0.6344
vn 0.8819 -0.0000 -0.4714
vn 0.9569 -0.0000 -0.2903
vn 0.9952 -0.0000 -0.0980
vn 1.0000 -0.0000 -0.0000
vn -0.0000 -0.0000 -1.0000
vn -0.0000 1.0000 -0.0000
vt 0.500000 0.500000
vt 0.750000 0.010000
vt 0.497500 0.083333
vt 0.500000 1.000000
vt 0.502500 0.083333
vt 0.468750 0.500000
vt 0.703178 0.014612
vt 0.468750 1.000000
vt 0.437500 0.500000
vt 0.658156 0.028269
vt 0.437500 1.000000
vt 0.406250 0.500000
vt 0.616663 0.050447
vt 0.406250 1.000000
vt 0.375000 0.500000
vt 0.580294 0.080294
vt 0.375000 1.000000
vt 0.343750 0.500000
vt 0.550447 0.116663
vt 0.343750 1.000000
vt 0.312500 0.500000
vt 0.528269 0.158156
vt 0.312500 1.000000
vt 0.281250 0.500000
vt 0.514612 0.203178
vt 0.281250 1.000000
vt 0.250000 0.500000
vt 0.510000 0.250000
vt 0.497500 1.000000
vt 0.250000 1.000000
vt 0.502500 1.000000
vt 0.250000 0.875000
vt 0.502500 0.950000
vt 0.312500 0.875000
vt 0.281250 0.875000
vt 0.343750 0.875000
vt 0.406250 0.875000
vt 0.437500 0.875000
vt 0.375000 0.875000
vt 0.468750 0.875000
vt 0.500000 0.875000
vt 0.502500 0.100000
vt 0.606000 0.250000
vt 0.250000 0.625000
vt 0.497500 0.950000
vt 0.616961 0.194894
vt 0.312500 0.625000
vt 0.608767 0.221907
vt 0.281250 0.625000
vt 0.630268 0.169998
vt 0.343750 0.625000
vt 0.648177 0.148177
vt 0.375000 0.625000
vt 0.669998 0.130268
vt 0.406250 0.625000
vt 0.750000 0.106000
vt 0.500000 0.625000
vt 0.497500 0.100000
vt 0.721907 0.108767
vt 0.468750 0.625000
vt 0.694894 0.116961
vt 0.437500 0.625000
vt 0.250000 0.010000
vt 0.203178 0.014612
vt 0.158156 0.028269
vt 0.116663 0.050447
vt 0.080294 0.080294
vt 0.050447 0.116663
vt 0.028269 0.158156
vt 0.014612 0.203178
vt 0.010000 0.250000
vt 0.106000 0.250000
vt 0.116961 0.194894
vt 0.108767 0.221907
vt 0.130268 0.169998
vt 0.169998 0.130268
vt 0.194894 0.116961
vt 0.148177 0.148177
vt 0.221907 0.108767
vt 0.250000 0.106000
s 0
usemtl Material.003
f 1/1/1 2/4/1 4/8/1 3/6/1
f 3/6/2 4/8/2 6/11/2 5/9/2
f 5/9/3 6/11/3 8/14/3 7/12/3
f 7/12/4 8/14/4 10/17/4 9/15/4
f 9/15/5 10/17/5 12/20/5 11/18/5
f 11/18/6 12/20/6 14/23/6 13/21/6
f 13/21/7 14/23/7 16/26/7 15/24/7
f 15/24/8 16/26/8 18/30/8 17/27/8
f 28/43/9 30/48/9 15/25/9 17/28/9
f 34/56/9 1/2/9 3/7/9 5/10/9 7/13/9 9/16/9 11/19/9 13/22/9 15/25/9 30/48/9 29/46/9 31/50/9 32/52/9 33/54/9 36/61/9 35/59/9
f 26/40/10 27/41/10 34/57/10 35/60/10
f 24/38/11 26/40/11 35/60/11 36/62/11
f 23/37/12 24/38/12 36/62/12 33/55/12
f 25/39/13 23/37/13 33/55/13 32/53/13
f 31/51/14 22/36/14 25/39/14 32/53/14
f 29/47/15 20/34/15 22/36/15 31/51/15
f 30/49/16 21/35/16 20/34/16 29/47/16
f 28/44/17 19/32/17 21/35/17 30/49/17
f 34/58/18 27/42/18 2/5/18 1/3/18
f 18/31/19 19/33/19 28/45/19 17/29/19
usemtl Material.004
f 45/71/20 44/70/20 43/69/20 42/68/20 41/67/20 40/66/20 39/65/20 51/77/20 50/76/20 52/78/20 49/75/20 47/73/20 48/74/20 46/72/20
f 39/65/20 38/64/20 37/63/20 54/80/20 53/79/20 51/77/20
