# Blender 3.3.1
# www.blender.org
mtllib sand4.mtl
o Cylinder.002
v 0.000000 -1.000000 -10.000000
v 0.000000 1.000000 -10.000000
v 3.090170 -1.000000 -9.510566
v 3.090170 1.000000 -9.510566
v 5.877852 -1.000000 -8.090170
v 5.877852 1.000000 -8.090170
v 8.090170 -1.000000 -5.877852
v 8.090170 1.000000 -5.877852
v 9.510566 -1.000000 -3.090170
v 9.510566 1.000000 -3.090170
v 10.000000 -1.000000 0.000000
v 10.000000 1.000000 0.000000
v 9.510566 -1.000000 3.090170
v 9.510566 1.000000 3.090170
v 8.090170 -1.000000 5.877852
v 8.090170 1.000000 5.877852
v 5.877852 -1.000000 8.090170
v 5.877852 1.000000 8.090170
v 3.090170 -1.000000 9.510566
v 3.090170 1.000000 9.510566
v 0.000000 -1.000000 10.000000
v 0.000000 1.000000 10.000000
v -3.090170 -1.000000 9.510566
v -3.090170 1.000000 9.510566
v -5.877852 -1.000000 8.090170
v -5.877852 1.000000 8.090170
v -8.090170 -1.000000 5.877852
v -8.090170 1.000000 5.877852
v -9.510566 -1.000000 3.090170
v -9.510566 1.000000 3.090170
v -10.000000 -1.000000 0.000000
v -10.000000 1.000000 0.000000
v -9.510566 -1.000000 -3.090170
v -9.510566 1.000000 -3.090170
v -8.090170 -1.000000 -5.877852
v -8.090170 1.000000 -5.877852
v -5.877852 -1.000000 -8.090170
v -5.877852 1.000000 -8.090170
v -3.090170 -1.000000 -9.510566
v -3.090170 1.000000 -9.510566
v 0.000000 1.001069 -10.000000
v 3.090170 1.001069 -9.510566
v 5.877852 1.001069 -8.090170
v 8.090170 1.001069 -5.877852
v 9.510566 1.001069 -3.090170
v 10.000000 1.001069 0.000000
v 9.510566 1.001069 3.090170
v 8.090170 1.001069 5.877852
v 5.877852 1.001069 8.090170
v 3.090170 1.001069 9.510566
v 0.000000 1.001069 10.000000
v -3.090170 1.001069 9.510566
v -5.877852 1.001069 8.090170
v -8.090170 1.001069 5.877852
v -9.510566 1.001069 3.090170
v -10.000000 1.001069 0.000000
v -9.510566 1.001069 -3.090170
v -8.090170 1.001069 -5.877852
v -5.877852 1.001069 -8.090170
v -3.090170 1.001069 -9.510566
vn 0.1564 -0.0000 -0.9877
vn 0.4540 -0.0000 -0.8910
vn 0.7071 -0.0000 -0.7071
vn 0.8910 -0.0000 -0.4540
vn 0.9877 -0.0000 -0.1564
vn 0.9877 -0.0000 0.1564
vn 0.8910 -0.0000 0.4540
vn 0.7071 -0.0000 0.7071
vn 0.4540 -0.0000 0.8910
vn 0.1564 -0.0000 0.9877
vn -0.1564 -0.0000 0.9877
vn -0.4540 -0.0000 0.8910
vn -0.7071 -0.0000 0.7071
vn -0.8910 -0.0000 0.4540
vn -0.9877 -0.0000 0.1564
vn -0.9877 -0.0000 -0.1564
vn -0.8910 -0.0000 -0.4540
vn -0.7071 -0.0000 -0.7071
vn -0.4540 -0.0000 -0.8910
vn -0.1564 -0.0000 -0.9877
vn -0.0000 -1.0000 -0.0000
vn -0.0000 1.0000 -0.0000
vt 1.000000 0.500000
vt -0.000000 0.500000
vt 0.750000 0.490000
vt 1.000000 1.000000
vt -0.000000 1.000000
vt 0.950000 0.500000
vt 0.824164 0.478254
vt 0.950000 1.000000
vt 0.900000 0.500000
vt 0.891068 0.444164
vt 0.900000 1.000000
vt 0.850000 0.500000
vt 0.944164 0.391068
vt 0.850000 1.000000
vt 0.800000 0.500000
vt 0.978254 0.324164
vt 0.800000 1.000000
vt 0.750000 0.500000
vt 0.990000 0.250000
vt 0.750000 1.000000
vt 0.700000 0.500000
vt 0.978254 0.175836
vt 0.700000 1.000000
vt 0.650000 0.500000
vt 0.944164 0.108932
vt 0.650000 1.000000
vt 0.600000 0.500000
vt 0.891068 0.055836
vt 0.600000 1.000000
vt 0.550000 0.500000
vt 0.824164 0.021746
vt 0.550000 1.000000
vt 0.500000 0.500000
vt 0.750000 0.010000
vt 0.500000 1.000000
vt 0.450000 0.500000
vt 0.675836 0.021746
vt 0.450000 1.000000
vt 0.400000 0.500000
vt 0.608932 0.055836
vt 0.400000 1.000000
vt 0.350000 0.500000
vt 0.555836 0.108932
vt 0.350000 1.000000
vt 0.300000 0.500000
vt 0.521746 0.175836
vt 0.300000 1.000000
vt 0.250000 0.500000
vt 0.510000 0.250000
vt 0.250000 1.000000
vt 0.200000 0.500000
vt 0.521746 0.324164
vt 0.200000 1.000000
vt 0.150000 0.500000
vt 0.555836 0.391068
vt 0.150000 1.000000
vt 0.100000 0.500000
vt 0.608932 0.444164
vt 0.100000 1.000000
vt 0.050000 0.500000
vt 0.675836 0.478254
vt 0.050000 1.000000
vt 0.250000 0.490000
vt 0.324164 0.478254
vt 0.391068 0.444164
vt 0.444164 0.391068
vt 0.478254 0.324164
vt 0.490000 0.250000
vt 0.478254 0.175836
vt 0.444164 0.108932
vt 0.391068 0.055836
vt 0.324164 0.021746
vt 0.250000 0.010000
vt 0.175836 0.021746
vt 0.108932 0.055836
vt 0.055836 0.108932
vt 0.021746 0.175836
vt 0.010000 0.250000
vt 0.021746 0.324164
vt 0.055836 0.391068
vt 0.108932 0.444164
vt 0.175836 0.478254
s 0
usemtl Material.005
f 1/1/1 2/4/1 4/8/1 3/6/1
f 3/6/2 4/8/2 6/11/2 5/9/2
f 5/9/3 6/11/3 8/14/3 7/12/3
f 7/12/4 8/14/4 10/17/4 9/15/4
f 9/15/5 10/17/5 12/20/5 11/18/5
f 11/18/6 12/20/6 14/23/6 13/21/6
f 13/21/7 14/23/7 16/26/7 15/24/7
f 15/24/8 16/26/8 18/29/8 17/27/8
f 17/27/9 18/29/9 20/32/9 19/30/9
f 19/30/10 20/32/10 22/35/10 21/33/10
f 21/33/11 22/35/11 24/38/11 23/36/11
f 23/36/12 24/38/12 26/41/12 25/39/12
f 25/39/13 26/41/13 28/44/13 27/42/13
f 27/42/14 28/44/14 30/47/14 29/45/14
f 29/45/15 30/47/15 32/50/15 31/48/15
f 31/48/16 32/50/16 34/53/16 33/51/16
f 33/51/17 34/53/17 36/56/17 35/54/17
f 35/54/18 36/56/18 38/59/18 37/57/18
f 37/57/19 38/59/19 40/62/19 39/60/19
f 39/60/20 40/62/20 2/5/20 1/2/20
f 1/3/21 3/7/21 5/10/21 7/13/21 9/16/21 11/19/21 13/22/21 15/25/21 17/28/21 19/31/21 21/34/21 23/37/21 25/40/21 27/43/21 29/46/21 31/49/21 33/52/21 35/55/21 37/58/21 39/61/21
usemtl Material.006
f 42/64/22 41/63/22 60/82/22 59/81/22 58/80/22 57/79/22 56/78/22 55/77/22 54/76/22 53/75/22 52/74/22 51/73/22 50/72/22 49/71/22 48/70/22 47/69/22 46/68/22 45/67/22 44/66/22 43/65/22
